<?xml version="1.0" encoding="utf-8"?>
<!-- Generator: Adobe Illustrator 19.0.0, SVG Export Plug-In . SVG Version: 6.00 Build 0)  -->
<svg version="1.1" id="Слой_1" xmlns="http://www.w3.org/2000/svg" xmlns:xlink="http://www.w3.org/1999/xlink" x="0px" y="0px"
	 viewBox="560.9 52.4 663.3 663.3" style="enable-background:new 560.9 52.4 663.3 663.3;" xml:space="preserve">
<style type="text/css">
	.st0{fill:#FFFFFF;}
</style>
<path id="_x31_" class="st0" d="M611.5,149.9c-14.6,9.4-41.7,17.3-47.7,22.9c-0.4,0.4-1.7,1.5-2.3,3.4c-0.7,2.1-0.8,5.2,0.7,7.4
	c1.2,1.8,2.3,1.6,8.3,4.8c2.5,1.3,1.7,1,7,3.9c2,1.1,3.7,2,6.4,3.5c1.4,0.8,1.4,0.9,2.7,1.6c3.1,1.8,5.7,3,15.2,8.3
	c5.9,3.2,8.7,4.9,11.7,6.6c12.3,7.2,18.3,10.7,23.8,15.9c5.2,4.9,10.3,9.7,13,17.4c3.5,10.2-0.1,19.9-4.4,31.4
	c-3,8.3-5.6,12-11.5,22.8c-4.2,7.6-9,17.5-18.7,37.5c-10.2,20.9-15.3,31.3-18.2,39c-14.5,38-11.5,72.6-10.6,80.6
	c2.7,25.9,10.8,44.2,18.2,60.8c4.2,9.4,16.6,35.9,41,64.9c35.4,42,73.6,62.7,85.6,68.9c31.1,16,57.5,21.8,78,26.3
	c35.7,7.9,63.4,8.7,80.6,9.1c35.5,0.9,81.5,1.6,134.8-17.2c36.2-12.8,58.6-28.6,63.3-31.9c14.3-10.2,25-20.5,35-29.9
	c8.3-7.9,22.8-21.9,38-41c9.5-12.1,27.7-35.3,41.7-68.4c16.6-38.9,19.3-72,21-94.5l0,0c0-48.3,0.2-42.9,0.2-46.8
	c0-7.6-3-23.5-9.1-55.2c-4.3-22-8.6-39.7-12.7-53.2c-1.3-4.5-1.9-5.6-3.1-10.1c-1.5-5.7-4-11.1-5.3-16.8c-0.1-0.5-0.4-2-1-2.1
	c-0.7-0.1-1.3,1.7-1.5,2.2c-1.5,3.7-4.4,6.7-6.5,10.1c-2.3,3.9-14.8,22-30.5,40.5c-14.1,16.5-31.7,37.3-59.8,58.5
	c-14.3,10.7-33.7,25.3-63.1,36.8c-14.8,5.8-38.7,14.9-71.2,15.5c-35.3,0.7-61.1-9-66.6-11.1c-12.1-4.7-32.3-14.2-52.4-32.7
	c-9.8-9.1-24-22.3-33.7-44.6c-10.5-24.2-10.1-46.2-9.8-58.5c0.5-16.8,3.9-32.9,6.4-45.6c2-9.9,4.8-20.9,6.8-37.8
	c1.6-14,1.4-19.9,0.2-25.9c-2.6-13.1-9-21.8-11-24.3c-8.1-10.4-17.4-15.1-26-19.3c-5.2-2.5-18.6-8.5-37.2-9.4c-4.1-0.2-7-0.1-9.3,0
	c-8.9,0.3-24.3,1.1-41,9.1c-2.9,1.4-10.3,5.2-18.3,11.8c-4.6,3.7-6.4,6-12.1,11.9c-8.3,8.6-8.6,8.2-26,25
	C611.1,150,613.4,148.7,611.5,149.9z"/>
<rect x="301.6" y="848.3" width="3" height="3"/>
</svg>
